<?xml version="1.0" standalone="no"?><!DOCTYPE svg PUBLIC "-//W3C//DTD SVG 1.1//EN" "http://www.w3.org/Graphics/SVG/1.1/DTD/svg11.dtd"><svg t="1503990784194" class="icon" style="" viewBox="0 0 1024 1024" version="1.1" xmlns="http://www.w3.org/2000/svg" p-id="8731" xmlns:xlink="http://www.w3.org/1999/xlink" width="200" height="200"><defs><style type="text/css">svg{fill: #c6ebf7}</style></defs><path d="M512 0C229.229474 0 0 229.229474 0 512.001684 0 794.772211 229.229474 1024 512 1024c282.770526 0 512-229.227789 512-511.998316C1024 229.229474 794.770526 0 512 0zM512 997.052632C244.112842 997.052632 26.947368 779.890526 26.947368 512.001684S244.112842 26.947368 512 26.947368c267.888842 0 485.052632 217.165474 485.052632 485.054316S779.888842 997.052632 512 997.052632zM440.545684 650.144 269.052632 478.654316 249.999158 497.709474 421.490526 669.200842 440.545684 688.256 459.599158 669.200842 774.000842 354.799158 754.947368 335.744Z" p-id="8732"></path></svg>