<?xml version="1.0" standalone="no"?><!DOCTYPE svg PUBLIC "-//W3C//DTD SVG 1.1//EN" "http://www.w3.org/Graphics/SVG/1.1/DTD/svg11.dtd"><svg t="1504599595439" class="icon" style="" viewBox="0 0 1241 1024" version="1.1" xmlns="http://www.w3.org/2000/svg" p-id="1851" xmlns:xlink="http://www.w3.org/1999/xlink" width="38.78125" height="32"><defs><style type="text/css">svg{fill:#eee}</style></defs><path d="M1096.812606 531.673212V45.412848A44.404364 44.404364 0 0 0 1051.834182 0.434424H45.583515A44.404364 44.404364 0 0 0 0.620606 45.412848v840.409213a44.404364 44.404364 0 0 0 44.962909 44.978424h750.467879c47.786667 53.403152 115.246545 84.324848 191.146667 84.324848a251.919515 251.919515 0 0 0 252.95903-252.974545c-2.808242-103.998061-59.035152-188.322909-143.36-230.477576zM28.70303 56.630303c0-16.86497 11.248485-28.113455 28.113455-28.113455H1040.601212c16.86497 0 28.097939 11.248485 28.09794 28.113455v252.974545l-449.722182 264.223031-250.150788-109.630061H340.712727L28.70303 635.655758V56.676848h0.015515z m744.851394 843.248485H56.832c-16.86497 0-28.113455-11.248485-28.113455-28.12897V675.017697L354.769455 492.295758l250.150787 112.438303h28.113455l435.665455-250.166303v165.856969a264.905697 264.905697 0 0 0-84.324849-14.072242 251.919515 251.919515 0 0 0-252.974545 252.974545c0 50.594909 14.056727 101.189818 42.170181 140.536243z m210.804364 84.309333c-123.671273 0-224.861091-101.189818-224.861091-224.861091 0-123.655758 101.189818-224.861091 224.861091-224.861091 123.655758 0 224.861091 101.189818 224.861091 224.861091 0 123.655758-101.189818 224.861091-224.861091 224.861091zM278.884848 169.084121c-47.786667 0-84.324848 36.538182-84.324848 84.324849 0 47.786667 36.538182 84.324848 84.324848 84.324848 47.786667 0 84.324848-36.538182 84.324849-84.324848 0-47.786667-39.361939-84.324848-84.324849-84.324849z m0 140.536243a56.382061 56.382061 0 0 1-56.211393-56.211394 56.382061 56.382061 0 0 1 56.211393-56.211394 56.382061 56.382061 0 0 1 56.211394 56.211394 56.382061 56.382061 0 0 1-56.211394 56.211394zM992.814545 644.096c-5.632-2.792727-11.248485-2.792727-14.056727 0l-120.86303 118.054788c-2.792727 2.808242-2.792727 8.440242-2.792727 11.248485 2.792727 2.792727 5.616485 5.616485 11.232969 5.616485h73.076364l11.23297 103.99806c0 5.616485 5.632 11.248485 11.248484 8.440243 5.616485 0 11.23297-5.632 11.23297-11.248485l-11.23297-112.438303c0-5.616485-5.632-11.23297-11.248484-11.23297H894.448485l95.573333-92.749576 95.573334 92.749576h-56.211394c-5.632 0-11.248485 5.616485-11.248485 11.23297l-11.23297 112.438303c0 5.616485 2.792727 11.248485 11.23297 11.248485 5.632 0 11.248485-2.823758 11.248485-11.248485l11.232969-103.998061h73.076364c5.632 0 8.440242-2.808242 11.248485-5.616485 2.792727-2.823758 0-8.440242-2.808243-11.248485l-129.303272-115.246545z" p-id="1852"></path></svg>