<?xml version="1.0" standalone="no"?><!DOCTYPE svg PUBLIC "-//W3C//DTD SVG 1.1//EN" "http://www.w3.org/Graphics/SVG/1.1/DTD/svg11.dtd"><svg t="1504065094077" class="icon" style="" viewBox="0 0 1024 1024" version="1.1" xmlns="http://www.w3.org/2000/svg" p-id="16836" xmlns:xlink="http://www.w3.org/1999/xlink" width="32" height="32"><defs><style type="text/css">svg{fill:#fff}</style></defs><path d="M972.8 346.112c-21.504-59.392-52.224-111.616-94.208-158.72C823.296 125.952 755.712 79.872 677.888 51.2 641.024 37.888 603.136 29.696 563.2 25.6c-13.312-1.024-26.624-2.048-39.936-2.048-2.048 0-5.12-1.024-7.168-1.024-2.048 0-5.12 0-7.168 0-2.048 0-4.096 1.024-6.144 1.024-53.248 1.024-105.472 10.24-155.648 28.672-59.392 21.504-111.616 52.224-158.72 94.208C125.952 200.704 79.872 268.288 51.2 346.112 37.888 382.976 29.696 421.888 25.6 460.8c-1.024 13.312-2.048 26.624-2.048 40.96 0 2.048 0 5.12-1.024 7.168 0 2.048 0 5.12 0 7.168 0 2.048 1.024 4.096 1.024 6.144 1.024 53.248 10.24 105.472 28.672 155.648 20.48 56.32 49.152 106.496 88.064 151.552 56.32 65.536 124.928 113.664 205.824 142.336 36.864 13.312 75.776 22.528 114.688 26.624 13.312 1.024 26.624 2.048 39.936 2.048 2.048 0 5.12 1.024 7.168 1.024 2.048 0 5.12 0 7.168 0 2.048 0 4.096-1.024 6.144-1.024 53.248-1.024 105.472-10.24 155.648-28.672 59.392-21.504 111.616-52.224 158.72-94.208 62.464-55.296 107.52-121.856 136.192-199.68 13.312-36.864 22.528-75.776 26.624-114.688 1.024-13.312 2.048-26.624 2.048-40.96 0-2.048 0-5.12 1.024-7.168 0-2.048 0-5.12 0-7.168 0-2.048-1.024-4.096-1.024-6.144C1000.448 448.512 990.208 396.288 972.8 346.112zM506.88 960.512C259.072 957.44 60.416 754.688 63.488 506.88 66.56 259.072 269.312 60.416 518.144 63.488c247.808 3.072 446.464 206.848 443.392 453.632C957.44 764.928 754.688 963.584 506.88 960.512z" p-id="16837"></path><path d="M701.44 616.448c-30.72-32.768-67.584-56.32-109.568-70.656-1.024 0-3.072-1.024-5.12-2.048 3.072-2.048 6.144-3.072 8.192-4.096 47.104-27.648 76.8-67.584 84.992-121.856 7.168-46.08-4.096-88.064-32.768-123.904-44.032-54.272-101.376-74.752-169.984-62.464-43.008 8.192-76.8 30.72-102.4 65.536-29.696 39.936-38.912 84.992-27.648 134.144 10.24 46.08 36.864 80.896 76.8 105.472 4.096 3.072 9.216 5.12 13.312 8.192-1.024 1.024-1.024 1.024-1.024 1.024-2.048 1.024-4.096 1.024-6.144 2.048-41.984 14.336-78.848 37.888-108.544 71.68-41.984 47.104-62.464 101.376-63.488 163.84 0 9.216 5.12 15.36 13.312 15.36 8.192 0 14.336-6.144 14.336-14.336 0-9.216 1.024-17.408 2.048-26.624 6.144-48.128 25.6-90.112 59.392-124.928 57.344-58.368 126.976-80.896 206.848-67.584 63.488 11.264 112.64 44.032 148.48 97.28 24.576 35.84 35.84 76.8 36.864 120.832 0 9.216 6.144 14.336 14.336 14.336 8.192 0 13.312-6.144 13.312-14.336 0-22.528-3.072-44.032-9.216-65.536C747.52 678.912 728.064 645.12 701.44 616.448zM530.432 531.456c-73.728 9.216-143.36-37.888-157.696-111.616-10.24-55.296 8.192-102.4 52.224-137.216 25.6-20.48 54.272-28.672 86.016-29.696 61.44 0 116.736 38.912 135.168 97.28 15.36 49.152 5.12 94.208-27.648 133.12C595.968 512 566.272 527.36 530.432 531.456z" p-id="16838"></path></svg>