<?xml version="1.0" standalone="no"?><!DOCTYPE svg PUBLIC "-//W3C//DTD SVG 1.1//EN" "http://www.w3.org/Graphics/SVG/1.1/DTD/svg11.dtd"><svg t="1504072298461" class="icon" style="" viewBox="0 0 1024 1024" version="1.1" xmlns="http://www.w3.org/2000/svg" p-id="18733" xmlns:xlink="http://www.w3.org/1999/xlink" width="32" height="32"><defs><style type="text/css">svg{fill:#fff}</style></defs><path d="M801.15712 693.794816c9.458688-9.46176 14.211072-21.900288 14.211072-34.338816L815.368192 193.02912c0-12.397568-4.752384-24.91904-14.211072-34.3808-9.50272-9.46176-21.982208-14.2336-34.420736-14.2336L112.288768 144.41472c-12.439552 0-24.879104 4.77184-34.379776 14.2336-9.503744 9.46176-14.25408 21.982208-14.25408 34.3808l0 466.42688c0 12.438528 4.75136 24.877056 14.25408 34.338816 9.500672 9.50272 21.940224 14.31552 34.379776 14.31552l139.29472 0 0 167.005184c-0.039936 7.871488 4.404224 15.45728 12.01152 19.007488 2.869248 1.353728 5.889024 1.992704 8.861696 1.992704 4.907008 0 9.686016-1.741824 13.444096-4.890624l189.437952-183.113728 291.396608 0C779.175936 708.11136 791.6544 703.29856 801.15712 693.794816zM459.60704 669.19936l-11.311104 10.934272L290.495488 832.6656 290.495488 708.11136l0-38.912-38.912 0-139.29472 0c-1.473536 0-4.325376-0.37888-6.862848-2.916352l-0.03072-0.031744-0.031744-0.03072c-2.312192-2.301952-2.797568-4.948992-2.797568-6.76352L102.565888 193.02912c0-1.501184 0.36352-4.38272 2.799616-6.807552 2.528256-2.518016 5.42208-2.893824 6.92224-2.893824l654.447616 0c1.509376 0 4.410368 0.372736 6.933504 2.864128 2.422784 2.446336 2.786304 5.331968 2.786304 6.838272l0 466.42688c0 1.497088-0.365568 4.374528-2.813952 6.823936-2.53952 2.53952-5.41696 2.919424-6.905856 2.919424L475.339776 669.200384 459.60704 669.200384z" p-id="18734"></path><path d="M938.514432 248.848384l-60.499968 0c-10.744832 0-19.456 8.710144-19.456 19.456 0 10.744832 8.711168 19.456 19.456 19.456l41.043968 0L919.058432 749.990912 721.405952 749.990912c-10.744832 0-19.456 8.711168-19.456 19.456l0 56.093696-94.047232-71.575552c-3.387392-2.578432-7.5264-3.974144-11.783168-3.974144l-93.964288 0c-10.744832 0-19.456 8.711168-19.456 19.456s8.711168 19.456 19.456 19.456l87.402496 0 120.065024 91.37664c3.452928 2.627584 7.605248 3.974144 11.78624 3.974144 2.941952 0 5.900288-0.666624 8.63744-2.023424 6.62528-3.283968 10.815488-10.039296 10.815488-17.432576L740.861952 788.902912l197.653504 0c10.744832 0 19.456-8.711168 19.456-19.456L957.971456 268.304384C957.970432 257.558528 949.259264 248.848384 938.514432 248.848384z" p-id="18735"></path><path d="M251.583488 363.656192c-34.583552 0-62.6432 27.976704-62.6432 62.642176 0 34.666496 28.059648 62.6432 62.6432 62.6432 34.604032 0 62.6432-27.977728 62.6432-62.6432C314.226688 391.632896 286.18752 363.656192 251.583488 363.656192z" p-id="18736"></path><path d="M439.512064 363.656192c-34.583552 0-62.6432 27.976704-62.6432 62.642176 0 34.666496 28.058624 62.6432 62.6432 62.6432 34.562048 0 62.6432-27.977728 62.6432-62.6432C502.155264 391.632896 474.074112 363.656192 439.512064 363.656192z" p-id="18737"></path><path d="M627.441664 363.656192c-34.583552 0-62.644224 27.976704-62.644224 62.642176 0 34.666496 28.059648 62.6432 62.644224 62.6432 34.564096 0 62.641152-27.977728 62.641152-62.6432C690.082816 391.632896 662.00576 363.656192 627.441664 363.656192z" p-id="18738"></path></svg>